Font-Regular.ufo
<glyph name="comma" format="2">
  <advance width="870"/>
  <unicode hex="002C"/>
  <outline>
    <contour>
      <point x="280" y="0" type="line"/>
      <point x="280" y="1000" type="line"/>
      <point x="380" y="1000" type="line"/>
      <point x="380" y="0" type="line"/>
    </contour>
    <contour>
      <point x="480" y="0" type="line"/>
      <point x="480" y="1000" type="line"/>
      <point x="580" y="1000" type="line"/>
      <point x="580" y="0" type="line"/>
    </contour>
    <contour>
      <point x="580" y="0" type="line"/>
      <point x="580" y="100" type="line"/>
      <point x="780" y="300" type="line"/>
      <point x="780" y="200" type="line"/>
    </contour>
    <contour>
      <point x="80" y="0" type="line"/>
      <point x="80" y="700" type="line"/>
    </contour>
  </outline>
</glyph>
<glyph name="hyphen" format="2">
  <advance width="670"/>
  <unicode hex="002D"/>
  <outline>
    <contour>
      <point x="280" y="0" type="line"/>
      <point x="280" y="1000" type="line"/>
      <point x="380" y="1000" type="line"/>
      <point x="380" y="0" type="line"/>
    </contour>
    <contour>
      <point x="480" y="0" type="line"/>
      <point x="480" y="1000" type="line"/>
      <point x="580" y="1000" type="line"/>
      <point x="580" y="0" type="line"/>
    </contour>
    <contour>
      <point x="380" y="450" type="line"/>
      <point x="380" y="550" type="line"/>
      <point x="480" y="550" type="line"/>
      <point x="480" y="450" type="line"/>
    </contour>
    <contour>
      <point x="80" y="0" type="line"/>
      <point x="80" y="700" type="line"/>
    </contour>
  </outline>
</glyph>
<glyph name="question" format="2">
  <advance width="870"/>
  <unicode hex="003F"/>
  <outline>
    <contour>
      <point x="280" y="0" type="line"/>
      <point x="280" y="1000" type="line"/>
      <point x="380" y="1000" type="line"/>
      <point x="380" y="0" type="line"/>
    </contour>
    <contour>
      <point x="480" y="0" type="line"/>
      <point x="480" y="1000" type="line"/>
      <point x="580" y="1000" type="line"/>
      <point x="580" y="0" type="line"/>
    </contour>
    <contour>
      <point x="580" y="1000" type="line"/>
      <point x="580" y="900" type="line"/>
      <point x="780" y="700" type="line"/>
      <point x="780" y="800" type="line"/>
    </contour>
    <contour>
      <point x="80" y="0" type="line"/>
      <point x="80" y="700" type="line"/>
    </contour>
  </outline>
</glyph>
<glyph name="a" format="2">
  <advance width="700"/>
  <unicode hex="0061"/>
  <outline>
    <contour>
      <point x="0" y="900" type="line"/>
      <point x="0" y="1000" type="line"/>
      <point x="700" y="1000" type="line"/>
      <point x="700" y="900" type="line"/>
    </contour>
  </outline>
</glyph>
<glyph name="b" format="2">
  <advance width="170"/>
  <unicode hex="0062"/>
  <outline>
    <contour>
      <point x="80" y="0" type="line"/>
    </contour>
    <contour>
      <point x="80" y="0" type="line"/>
      <point x="80" y="700" type="line"/>
    </contour>
  </outline>
</glyph>
<glyph name="c" format="2">
  <advance width="870"/>
  <unicode hex="0063"/>
  <outline>
    <contour>
      <point x="780" y="600" type="line"/>
      <point x="680" y="600" type="line"/>
      <point x="680" y="300" type="line"/>
      <point x="80" y="300" type="line"/>
      <point x="80" y="0" type="line"/>
      <point x="780" y="0" type="line"/>
      <point x="780" y="100" type="line"/>
      <point x="180" y="100" type="line"/>
      <point x="180" y="200" type="line"/>
      <point x="780" y="200" type="line"/>
    </contour>
    <contour>
      <point x="80" y="0" type="line"/>
      <point x="80" y="700" type="line"/>
    </contour>
  </outline>
</glyph>
<glyph name="f" format="2">
  <advance width="170"/>
  <unicode hex="0066"/>
  <outline>
    <contour>
      <point x="80" y="0" type="line"/>
    </contour>
  </outline>
</glyph>
<glyph name="h" format="2">
  <advance width="170"/>
  <unicode hex="0068"/>
  <outline>
    <contour>
      <point x="80" y="0" type="line"/>
    </contour>
  </outline>
</glyph>
<glyph name="k" format="2">
  <advance width="170"/>
  <unicode hex="006B"/>
  <outline>
    <contour>
      <point x="80" y="0" type="line"/>
    </contour>
  </outline>
</glyph>
<glyph name="l" format="2">
  <advance width="700"/>
  <unicode hex="006C"/>
  <outline>
    <contour>
      <point x="0" y="0" type="line"/>
      <point x="0" y="600" type="line"/>
      <point x="100" y="600" type="line"/>
      <point x="600" y="400" type="line"/>
      <point x="600" y="600" type="line"/>
      <point x="700" y="600" type="line"/>
      <point x="700" y="300" type="line"/>
      <point x="600" y="300" type="line"/>
      <point x="100" y="500" type="line"/>
      <point x="100" y="0" type="line"/>
    </contour>
  </outline>
</glyph>
<glyph name="m" format="2">
  <advance width="870"/>
  <unicode hex="006D"/>
  <outline>
    <contour>
      <point x="80" y="0" type="line"/>
      <point x="430" y="600" type="line"/>
      <point x="780" y="0" type="line"/>
      <point x="680" y="0" type="line"/>
      <point x="430" y="450" type="line"/>
      <point x="180" y="0" type="line"/>
    </contour>
    <contour>
      <point x="80" y="0" type="line"/>
      <point x="80" y="700" type="line"/>
    </contour>
  </outline>
</glyph>
<glyph name="n" format="2">
  <advance width="170"/>
  <unicode hex="006E"/>
  <outline>
    <contour>
      <point x="80" y="0" type="line"/>
    </contour>
  </outline>
</glyph>
<glyph name="o" format="2">
  <advance width="170"/>
  <unicode hex="006F"/>
  <outline>
    <contour>
      <point x="80" y="0" type="line"/>
    </contour>
  </outline>
</glyph>
<glyph name="s" format="2">
  <advance width="870"/>
  <unicode hex="0073"/>
  <outline>
    <contour>
      <point x="780" y="600" type="line"/>
      <point x="630" y="600" type="line"/>
      <point x="80" y="350" type="line"/>
      <point x="80" y="250" type="line"/>
      <point x="630" y="250" type="line"/>
      <point x="80" y="0" type="line"/>
      <point x="230" y="0" type="line"/>
      <point x="780" y="250" type="line"/>
      <point x="780" y="350" type="line"/>
      <point x="230" y="350" type="line"/>
    </contour>
    <contour>
      <point x="80" y="0" type="line"/>
      <point x="80" y="700" type="line"/>
    </contour>
  </outline>
</glyph>
<glyph name="x" format="2">
  <advance width="870"/>
  <unicode hex="0078"/>
  <outline>
    <contour>
      <point x="80" y="0" type="line"/>
      <point x="380" y="300" type="line"/>
      <point x="80" y="600" type="line"/>
      <point x="180" y="600" type="line"/>
      <point x="430" y="350" type="line"/>
      <point x="680" y="600" type="line"/>
      <point x="780" y="600" type="line"/>
      <point x="480" y="300" type="line"/>
      <point x="780" y="0" type="line"/>
      <point x="680" y="0" type="line"/>
      <point x="430" y="250" type="line"/>
      <point x="180" y="0" type="line"/>
    </contour>
    <contour>
      <point x="80" y="0" type="line"/>
      <point x="80" y="700" type="line"/>
    </contour>
  </outline>
</glyph>
<glyph name="y" format="2">
  <advance width="870"/>
  <unicode hex="0079"/>
  <outline>
    <contour>
      <point x="80" y="150" type="line"/>
      <point x="80" y="250" type="line"/>
      <point x="780" y="250" type="line"/>
      <point x="780" y="150" type="line"/>
    </contour>
    <contour>
      <point x="80" y="350" type="line"/>
      <point x="80" y="450" type="line"/>
      <point x="780" y="450" type="line"/>
      <point x="780" y="350" type="line"/>
    </contour>
    <contour>
      <point x="80" y="0" type="line"/>
      <point x="80" y="700" type="line"/>
    </contour>
  </outline>
</glyph>
<glyph name="eacute" format="2">
  <advance width="870"/>
  <unicode hex="00E9"/>
  <outline>
    <contour>
      <point x="80" y="800" type="line"/>
      <point x="80" y="900" type="line"/>
      <point x="430" y="1000" type="line"/>
      <point x="780" y="900" type="line"/>
      <point x="780" y="800" type="line"/>
      <point x="430" y="900" type="line"/>
    </contour>
  </outline>
</glyph>
<glyph name="í" format="2">
  <advance width="170"/>
  <unicode hex="00ED"/>
  <outline>
    <contour>
      <point x="80" y="0" type="line"/>
    </contour>
  </outline>
</glyph>
<glyph name="eth" format="2">
  <advance width="170"/>
  <unicode hex="00F0"/>
  <outline>
    <contour>
      <point x="80" y="0" type="line"/>
    </contour>
  </outline>
</glyph>
<glyph name="þ" format="2">
  <advance width="170"/>
  <unicode hex="00FE"/>
  <outline>
    <contour>
      <point x="80" y="0" type="line"/>
    </contour>
  </outline>
</glyph>
<glyph name="eng" format="2">
  <advance width="870"/>
  <unicode hex="014B"/>
  <outline>
    <contour>
      <point x="80" y="0" type="line"/>
      <point x="80" y="100" type="line"/>
      <point x="380" y="100" type="line"/>
      <point x="380" y="600" type="line"/>
      <point x="480" y="600" type="line"/>
      <point x="480" y="100" type="line"/>
      <point x="780" y="100" type="line"/>
      <point x="780" y="0" type="line"/>
    </contour>
    <contour>
      <point x="80" y="0" type="line"/>
      <point x="80" y="700" type="line"/>
    </contour>
  </outline>
</glyph>
<glyph name="sacute" format="2">
  <advance width="170"/>
  <unicode hex="015B"/>
  <outline>
    <contour>
      <point x="80" y="0" type="line"/>
    </contour>
    <contour>
      <point x="80" y="0" type="line"/>
      <point x="80" y="700" type="line"/>
    </contour>
  </outline>
</glyph>
<glyph name="ś" format="2">
  <advance width="170"/>
  <unicode hex="015B"/>
  <outline>
    <contour>
      <point x="80" y="0" type="line"/>
    </contour>
  </outline>
</glyph>
<glyph name="zacute" format="2">
  <advance width="170"/>
  <unicode hex="017A"/>
  <outline>
    <contour>
      <point x="80" y="0" type="line"/>
    </contour>
  </outline>
</glyph>
<glyph name=".notdef" format="2">
  <advance width="870"/>
  <outline>
    <contour>
      <point x="80" y="0" type="line"/>
      <point x="80" y="900" type="line"/>
      <point x="180" y="900" type="line"/>
      <point x="180" y="0" type="line"/>
    </contour>
    <contour>
      <point x="80" y="900" type="line"/>
      <point x="80" y="1000" type="line"/>
      <point x="680" y="1000" type="line"/>
      <point x="680" y="900" type="line"/>
    </contour>
    <contour>
      <point x="680" y="1000" type="line"/>
      <point x="780" y="1000" type="line"/>
      <point x="780" y="100" type="line"/>
      <point x="680" y="100" type="line"/>
    </contour>
    <contour>
      <point x="180" y="0" type="line"/>
      <point x="180" y="100" type="line"/>
      <point x="780" y="100" type="line"/>
      <point x="780" y="0" type="line"/>
    </contour>
    <contour>
      <point x="180" y="100" type="line"/>
      <point x="180" y="200" type="line"/>
      <point x="580" y="900" type="line"/>
      <point x="680" y="900" type="line"/>
      <point x="680" y="800" type="line"/>
      <point x="280" y="100" type="line"/>
    </contour>
  </outline>
</glyph>
<glyph name="c_o.liga" format="2">
  <advance width="170"/>
  <outline>
    <contour>
      <point x="80" y="0" type="move"/>
    </contour>
    <contour>
      <point x="80" y="0" type="move"/>
    </contour>
  </outline>
</glyph>
<glyph name="d_iacute.liga" format="2">
  <advance width="870"/>
  <outline>
    <contour>
      <point x="80" y="0" type="move"/>
    </contour>
    <contour>
      <point x="80" y="0" type="line"/>
      <point x="80" y="700" type="line"/>
    </contour>
    <contour>
      <point x="80" y="700" type="line"/>
      <point x="80" y="850" type="line"/>
      <point x="430" y="1000" type="line"/>
      <point x="780" y="850" type="line"/>
      <point x="780" y="700" type="line"/>
      <point x="430" y="850" type="line"/>
    </contour>
    <contour>
      <point x="80" y="0" type="line"/>
      <point x="80" y="700" type="line"/>
    </contour>
  </outline>
</glyph>
<glyph name="d_uacute.liga" format="2">
  <advance width="870"/>
  <outline>
    <contour>
      <point x="80" y="100" type="line"/>
      <point x="380" y="600" type="line"/>
      <point x="480" y="600" type="line"/>
      <point x="780" y="100" type="line"/>
      <point x="680" y="100" type="line"/>
      <point x="430" y="500" type="line"/>
      <point x="180" y="100" type="line"/>
    </contour>
    <contour>
      <point x="80" y="0" type="line"/>
      <point x="80" y="100" type="line"/>
      <point x="780" y="100" type="line"/>
      <point x="780" y="0" type="line"/>
    </contour>
    <contour>
      <point x="80" y="250" type="line"/>
      <point x="80" y="350" type="line"/>
      <point x="230" y="350" type="line"/>
      <point x="170" y="250" type="line"/>
    </contour>
    <contour>
      <point x="780" y="250" type="line"/>
      <point x="780" y="350" type="line"/>
      <point x="630" y="350" type="line"/>
      <point x="690" y="250" type="line"/>
    </contour>
    <contour>
      <point x="274" y="250" type="line"/>
      <point x="335" y="350" type="line"/>
      <point x="525" y="350" type="line"/>
      <point x="586" y="250" type="line"/>
    </contour>
    <contour>
      <point x="80" y="0" type="line"/>
      <point x="80" y="700" type="line"/>
    </contour>
    <contour>
      <point x="80" y="700" type="line"/>
      <point x="80" y="850" type="line"/>
      <point x="313" y="1000" type="line"/>
      <point x="546" y="850" type="line"/>
      <point x="780" y="1000" type="line"/>
      <point x="780" y="850" type="line"/>
      <point x="546" y="700" type="line"/>
      <point x="313" y="850" type="line"/>
    </contour>
    <contour>
      <point x="80" y="0" type="line"/>
      <point x="80" y="700" type="line"/>
    </contour>
  </outline>
</glyph>
<glyph name="ellipsis" format="2">
  <advance width="770"/>
  <outline>
    <contour>
      <point x="380" y="0" type="line"/>
      <point x="480" y="0" type="line"/>
      <point x="480" y="1000" type="line"/>
      <point x="380" y="1000" type="line"/>
    </contour>
    <contour>
      <point x="180" y="0" type="line"/>
      <point x="280" y="0" type="line"/>
      <point x="280" y="1000" type="line"/>
      <point x="180" y="1000" type="line"/>
    </contour>
    <contour>
      <point x="580" y="0" type="line"/>
      <point x="680" y="0" type="line"/>
      <point x="680" y="1000" type="line"/>
      <point x="580" y="1000" type="line"/>
    </contour>
    <contour>
      <point x="80" y="0" type="line"/>
      <point x="80" y="700" type="line"/>
    </contour>
  </outline>
</glyph>
<glyph name="eng_oacute.liga" format="2">
  <advance width="870"/>
  <outline>
    <contour>
      <point x="80" y="0" type="line"/>
      <point x="80" y="100" type="line"/>
      <point x="380" y="100" type="line"/>
      <point x="380" y="600" type="line"/>
      <point x="480" y="600" type="line"/>
      <point x="480" y="100" type="line"/>
      <point x="780" y="100" type="line"/>
      <point x="780" y="0" type="line"/>
    </contour>
    <contour>
      <point x="80" y="0" type="line"/>
      <point x="80" y="700" type="line"/>
    </contour>
    <contour>
      <point x="680" y="700" type="line"/>
      <point x="680" y="1000" type="line"/>
      <point x="780" y="1000" type="line"/>
      <point x="780" y="700" type="line"/>
    </contour>
    <contour>
      <point x="80" y="700" type="line"/>
      <point x="80" y="800" type="line"/>
      <point x="680" y="800" type="line"/>
      <point x="680" y="700" type="line"/>
    </contour>
    <contour>
      <point x="80" y="900" type="line"/>
      <point x="80" y="1000" type="line"/>
      <point x="680" y="1000" type="line"/>
      <point x="680" y="900" type="line"/>
    </contour>
    <contour>
      <point x="80" y="0" type="line"/>
      <point x="80" y="700" type="line"/>
    </contour>
  </outline>
</glyph>
<glyph name="eth_i.liga" format="2">
  <advance width="870"/>
  <outline>
    <contour>
      <point x="780" y="600" type="line"/>
      <point x="630" y="600" type="line"/>
      <point x="80" y="350" type="line"/>
      <point x="80" y="250" type="line"/>
      <point x="630" y="250" type="line"/>
      <point x="80" y="0" type="line"/>
      <point x="230" y="0" type="line"/>
      <point x="780" y="250" type="line"/>
      <point x="780" y="350" type="line"/>
      <point x="230" y="350" type="line"/>
    </contour>
    <contour>
      <point x="230" y="0" type="line"/>
      <point x="780" y="0" type="line"/>
      <point x="780" y="250" type="line"/>
      <point x="680" y="205" type="line"/>
      <point x="680" y="100" type="line"/>
      <point x="450" y="100" type="line"/>
    </contour>
    <contour>
      <point x="395" y="425" type="line"/>
      <point x="615" y="525" type="line"/>
      <point x="780" y="525" type="line"/>
      <point x="780" y="425" type="line"/>
    </contour>
    <contour>
      <point x="80" y="425" type="line"/>
      <point x="80" y="525" type="line"/>
      <point x="465" y="525" type="line"/>
      <point x="245" y="425" type="line"/>
    </contour>
    <contour>
      <point x="80" y="0" type="line"/>
      <point x="80" y="700" type="line"/>
    </contour>
    <contour>
      <point x="380" y="700" type="line"/>
      <point x="380" y="1000" type="line"/>
      <point x="480" y="1000" type="line"/>
      <point x="480" y="700" type="line"/>
    </contour>
    <contour>
      <point x="80" y="0" type="line"/>
      <point x="80" y="700" type="line"/>
    </contour>
  </outline>
</glyph>
<glyph name="h_e.liga" format="2">
  <advance width="870"/>
  <outline>
    <contour>
      <point x="80" y="0" type="move"/>
    </contour>
    <contour>
      <point x="80" y="800" type="line"/>
      <point x="80" y="900" type="line"/>
      <point x="780" y="1000" type="line"/>
      <point x="780" y="900" type="line"/>
    </contour>
  </outline>
</glyph>
<glyph name="j_a.liga" format="2">
  <advance width="870"/>
  <outline>
    <contour>
      <point x="780" y="600" type="line"/>
      <point x="680" y="600" type="line"/>
      <point x="680" y="300" type="line"/>
      <point x="80" y="300" type="line"/>
      <point x="80" y="0" type="line"/>
      <point x="780" y="0" type="line"/>
      <point x="780" y="100" type="line"/>
      <point x="180" y="100" type="line"/>
      <point x="180" y="200" type="line"/>
      <point x="780" y="200" type="line"/>
    </contour>
    <contour>
      <point x="80" y="400" type="line"/>
      <point x="80" y="500" type="line"/>
      <point x="680" y="500" type="line"/>
      <point x="680" y="400" type="line"/>
    </contour>
    <contour>
      <point x="80" y="0" type="line"/>
      <point x="80" y="700" type="line"/>
    </contour>
    <contour>
      <point x="80" y="850" type="line"/>
      <point x="80" y="1000" type="line"/>
      <point x="780" y="1000" type="line"/>
      <point x="780" y="850" type="line"/>
    </contour>
    <contour>
      <point x="80" y="0" type="line"/>
      <point x="80" y="700" type="line"/>
    </contour>
  </outline>
</glyph>
<glyph name="k_uacute.liga" format="2">
  <advance width="870"/>
  <outline>
    <contour>
      <point x="780" y="600" type="line"/>
      <point x="80" y="600" type="line"/>
      <point x="80" y="0" type="line"/>
      <point x="180" y="0" type="line"/>
      <point x="180" y="500" type="line"/>
      <point x="780" y="500" type="line"/>
    </contour>
    <contour>
      <point x="80" y="0" type="line"/>
      <point x="80" y="700" type="line"/>
    </contour>
    <contour>
      <point x="80" y="700" type="line"/>
      <point x="80" y="850" type="line"/>
      <point x="313" y="1000" type="line"/>
      <point x="546" y="850" type="line"/>
      <point x="780" y="1000" type="line"/>
      <point x="780" y="850" type="line"/>
      <point x="546" y="700" type="line"/>
      <point x="313" y="850" type="line"/>
    </contour>
    <contour>
      <point x="80" y="0" type="line"/>
      <point x="80" y="700" type="line"/>
    </contour>
  </outline>
</glyph>
<glyph name="l_o.liga" format="2">
  <advance width="870"/>
  <outline>
    <contour>
      <point x="80" y="0" type="line"/>
      <point x="80" y="600" type="line"/>
      <point x="180" y="600" type="line"/>
      <point x="680" y="400" type="line"/>
      <point x="680" y="600" type="line"/>
      <point x="780" y="600" type="line"/>
      <point x="780" y="300" type="line"/>
      <point x="680" y="300" type="line"/>
      <point x="180" y="500" type="line"/>
      <point x="180" y="0" type="line"/>
    </contour>
    <contour>
      <point x="80" y="0" type="move"/>
    </contour>
  </outline>
</glyph>
<glyph name="m_a.liga" format="2">
  <advance width="870"/>
  <outline>
    <contour>
      <point x="80" y="0" type="line"/>
      <point x="430" y="600" type="line"/>
      <point x="780" y="0" type="line"/>
      <point x="680" y="0" type="line"/>
      <point x="430" y="450" type="line"/>
      <point x="180" y="0" type="line"/>
    </contour>
    <contour>
      <point x="80" y="0" type="line"/>
      <point x="80" y="700" type="line"/>
    </contour>
    <contour>
      <point x="80" y="850" type="line"/>
      <point x="80" y="1000" type="line"/>
      <point x="780" y="1000" type="line"/>
      <point x="780" y="850" type="line"/>
    </contour>
    <contour>
      <point x="80" y="0" type="line"/>
      <point x="80" y="700" type="line"/>
    </contour>
  </outline>
</glyph>
<glyph name="p_o.liga" format="2">
  <advance width="870"/>
  <outline>
    <contour>
      <point x="80" y="0" type="move"/>
    </contour>
    <contour>
      <point x="80" y="0" type="line"/>
      <point x="80" y="700" type="line"/>
    </contour>
    <contour>
      <point x="80" y="700" type="line"/>
      <point x="80" y="1000" type="line"/>
      <point x="180" y="1000" type="line"/>
      <point x="180" y="700" type="line"/>
    </contour>
    <contour>
      <point x="680" y="700" type="line"/>
      <point x="680" y="1000" type="line"/>
      <point x="780" y="1000" type="line"/>
      <point x="780" y="700" type="line"/>
    </contour>
    <contour>
      <point x="180" y="700" type="line"/>
      <point x="180" y="800" type="line"/>
      <point x="680" y="800" type="line"/>
      <point x="680" y="700" type="line"/>
    </contour>
    <contour>
      <point x="180" y="900" type="line"/>
      <point x="180" y="1000" type="line"/>
      <point x="680" y="1000" type="line"/>
      <point x="680" y="900" type="line"/>
    </contour>
    <contour>
      <point x="80" y="0" type="line"/>
      <point x="80" y="700" type="line"/>
    </contour>
  </outline>
</glyph>
<glyph name="s_i.liga" format="2">
  <advance width="870"/>
  <outline>
    <contour>
      <point x="780" y="600" type="line"/>
      <point x="630" y="600" type="line"/>
      <point x="80" y="350" type="line"/>
      <point x="80" y="250" type="line"/>
      <point x="630" y="250" type="line"/>
      <point x="80" y="0" type="line"/>
      <point x="230" y="0" type="line"/>
      <point x="780" y="250" type="line"/>
      <point x="780" y="350" type="line"/>
      <point x="230" y="350" type="line"/>
    </contour>
    <contour>
      <point x="80" y="0" type="line"/>
      <point x="80" y="700" type="line"/>
    </contour>
    <contour>
      <point x="380" y="700" type="line"/>
      <point x="380" y="1000" type="line"/>
      <point x="480" y="1000" type="line"/>
      <point x="480" y="700" type="line"/>
    </contour>
    <contour>
      <point x="80" y="0" type="line"/>
      <point x="80" y="700" type="line"/>
    </contour>
  </outline>
</glyph>
<glyph name="s_uacute.liga" format="2">
  <advance width="870"/>
  <outline>
    <contour>
      <point x="780" y="600" type="line"/>
      <point x="630" y="600" type="line"/>
      <point x="80" y="350" type="line"/>
      <point x="80" y="250" type="line"/>
      <point x="630" y="250" type="line"/>
      <point x="80" y="0" type="line"/>
      <point x="230" y="0" type="line"/>
      <point x="780" y="250" type="line"/>
      <point x="780" y="350" type="line"/>
      <point x="230" y="350" type="line"/>
    </contour>
    <contour>
      <point x="80" y="0" type="line"/>
      <point x="80" y="700" type="line"/>
    </contour>
    <contour>
      <point x="80" y="700" type="line"/>
      <point x="80" y="850" type="line"/>
      <point x="313" y="1000" type="line"/>
      <point x="546" y="850" type="line"/>
      <point x="780" y="1000" type="line"/>
      <point x="780" y="850" type="line"/>
      <point x="546" y="700" type="line"/>
      <point x="313" y="850" type="line"/>
    </contour>
    <contour>
      <point x="80" y="0" type="line"/>
      <point x="80" y="700" type="line"/>
    </contour>
  </outline>
</glyph>
<glyph name="sacute_i.liga" format="2">
  <advance width="570"/>
  <outline>
    <contour>
      <point x="80" y="0" type="move"/>
    </contour>
    <contour>
      <point x="80" y="0" type="line"/>
      <point x="80" y="700" type="line"/>
    </contour>
    <contour>
      <point x="380" y="700" type="line"/>
      <point x="380" y="1000" type="line"/>
      <point x="480" y="1000" type="line"/>
      <point x="480" y="700" type="line"/>
    </contour>
    <contour>
      <point x="80" y="0" type="line"/>
      <point x="80" y="700" type="line"/>
    </contour>
  </outline>
</glyph>
<glyph name="t_e.liga" format="2">
  <advance width="870"/>
  <outline>
    <contour>
      <point x="80" y="100" type="line"/>
      <point x="380" y="600" type="line"/>
      <point x="480" y="600" type="line"/>
      <point x="780" y="100" type="line"/>
      <point x="680" y="100" type="line"/>
      <point x="430" y="500" type="line"/>
      <point x="180" y="100" type="line"/>
    </contour>
    <contour>
      <point x="80" y="0" type="line"/>
      <point x="80" y="100" type="line"/>
      <point x="780" y="100" type="line"/>
      <point x="780" y="0" type="line"/>
    </contour>
    <contour>
      <point x="80" y="0" type="line"/>
      <point x="80" y="700" type="line"/>
    </contour>
    <contour>
      <point x="80" y="700" type="line"/>
      <point x="80" y="850" type="line"/>
      <point x="780" y="1000" type="line"/>
      <point x="780" y="850" type="line"/>
    </contour>
    <contour>
      <point x="80" y="0" type="line"/>
      <point x="80" y="700" type="line"/>
    </contour>
  </outline>
</glyph>
<glyph name="v_oacute.liga" format="2">
  <advance width="870"/>
  <outline>
    <contour>
      <point x="80" y="0" type="line"/>
      <point x="80" y="600" type="line"/>
      <point x="180" y="600" type="line"/>
      <point x="180" y="0" type="line"/>
    </contour>
    <contour>
      <point x="680" y="300" type="line"/>
      <point x="680" y="600" type="line"/>
      <point x="780" y="600" type="line"/>
      <point x="780" y="300" type="line"/>
    </contour>
    <contour>
      <point x="180" y="300" type="line"/>
      <point x="180" y="400" type="line"/>
      <point x="680" y="400" type="line"/>
      <point x="680" y="300" type="line"/>
    </contour>
    <contour>
      <point x="180" y="500" type="line"/>
      <point x="180" y="600" type="line"/>
      <point x="680" y="600" type="line"/>
      <point x="680" y="500" type="line"/>
    </contour>
    <contour>
      <point x="380" y="400" type="line"/>
      <point x="380" y="500" type="line"/>
      <point x="480" y="500" type="line"/>
      <point x="480" y="400" type="line"/>
    </contour>
    <contour>
      <point x="80" y="0" type="line"/>
      <point x="80" y="700" type="line"/>
    </contour>
    <contour>
      <point x="680" y="700" type="line"/>
      <point x="680" y="1000" type="line"/>
      <point x="780" y="1000" type="line"/>
      <point x="780" y="700" type="line"/>
    </contour>
    <contour>
      <point x="80" y="700" type="line"/>
      <point x="80" y="800" type="line"/>
      <point x="680" y="800" type="line"/>
      <point x="680" y="700" type="line"/>
    </contour>
    <contour>
      <point x="80" y="900" type="line"/>
      <point x="80" y="1000" type="line"/>
      <point x="680" y="1000" type="line"/>
      <point x="680" y="900" type="line"/>
    </contour>
    <contour>
      <point x="80" y="0" type="line"/>
      <point x="80" y="700" type="line"/>
    </contour>
  </outline>
</glyph>
<glyph name="w_i.liga" format="2">
  <advance width="870"/>
  <outline>
    <contour>
      <point x="780" y="0" type="line"/>
      <point x="780" y="100" type="line"/>
      <point x="80" y="600" type="line"/>
      <point x="80" y="0" type="line"/>
      <point x="380" y="0" type="line"/>
      <point x="380" y="200" type="line"/>
      <point x="280" y="200" type="line"/>
      <point x="280" y="100" type="line"/>
      <point x="180" y="100" type="line"/>
      <point x="180" y="400" type="line"/>
    </contour>
    <contour>
      <point x="80" y="0" type="line"/>
      <point x="80" y="700" type="line"/>
    </contour>
    <contour>
      <point x="380" y="700" type="line"/>
      <point x="380" y="1000" type="line"/>
      <point x="480" y="1000" type="line"/>
      <point x="480" y="700" type="line"/>
    </contour>
    <contour>
      <point x="80" y="0" type="line"/>
      <point x="80" y="700" type="line"/>
    </contour>
  </outline>
</glyph>
<glyph name="y_oacute.liga" format="2">
  <advance width="870"/>
  <outline>
    <contour>
      <point x="80" y="150" type="line"/>
      <point x="80" y="250" type="line"/>
      <point x="780" y="250" type="line"/>
      <point x="780" y="150" type="line"/>
    </contour>
    <contour>
      <point x="80" y="350" type="line"/>
      <point x="80" y="450" type="line"/>
      <point x="780" y="450" type="line"/>
      <point x="780" y="350" type="line"/>
    </contour>
    <contour>
      <point x="80" y="0" type="line"/>
      <point x="80" y="700" type="line"/>
    </contour>
    <contour>
      <point x="680" y="700" type="line"/>
      <point x="680" y="1000" type="line"/>
      <point x="780" y="1000" type="line"/>
      <point x="780" y="700" type="line"/>
    </contour>
    <contour>
      <point x="80" y="700" type="line"/>
      <point x="80" y="800" type="line"/>
      <point x="680" y="800" type="line"/>
      <point x="680" y="700" type="line"/>
    </contour>
    <contour>
      <point x="80" y="900" type="line"/>
      <point x="80" y="1000" type="line"/>
      <point x="680" y="1000" type="line"/>
      <point x="680" y="900" type="line"/>
    </contour>
    <contour>
      <point x="80" y="0" type="line"/>
      <point x="80" y="700" type="line"/>
    </contour>
  </outline>
</glyph>
<glyph name="z_o.liga" format="2">
  <advance width="870"/>
  <outline>
    <contour>
      <point x="780" y="600" type="line"/>
      <point x="630" y="600" type="line"/>
      <point x="80" y="350" type="line"/>
      <point x="80" y="250" type="line"/>
      <point x="630" y="250" type="line"/>
      <point x="80" y="0" type="line"/>
      <point x="230" y="0" type="line"/>
      <point x="780" y="250" type="line"/>
      <point x="780" y="350" type="line"/>
      <point x="230" y="350" type="line"/>
    </contour>
    <contour>
      <point x="395" y="425" type="line"/>
      <point x="615" y="525" type="line"/>
      <point x="780" y="525" type="line"/>
      <point x="780" y="425" type="line"/>
    </contour>
    <contour>
      <point x="80" y="425" type="line"/>
      <point x="80" y="525" type="line"/>
      <point x="465" y="525" type="line"/>
      <point x="245" y="425" type="line"/>
    </contour>
    <contour>
      <point x="80" y="0" type="line"/>
      <point x="80" y="700" type="line"/>
    </contour>
    <contour>
      <point x="80" y="700" type="line"/>
      <point x="80" y="1000" type="line"/>
      <point x="180" y="1000" type="line"/>
      <point x="180" y="700" type="line"/>
    </contour>
    <contour>
      <point x="680" y="700" type="line"/>
      <point x="680" y="1000" type="line"/>
      <point x="780" y="1000" type="line"/>
      <point x="780" y="700" type="line"/>
    </contour>
    <contour>
      <point x="180" y="700" type="line"/>
      <point x="180" y="800" type="line"/>
      <point x="680" y="800" type="line"/>
      <point x="680" y="700" type="line"/>
    </contour>
    <contour>
      <point x="180" y="900" type="line"/>
      <point x="180" y="1000" type="line"/>
      <point x="680" y="1000" type="line"/>
      <point x="680" y="900" type="line"/>
    </contour>
    <contour>
      <point x="80" y="0" type="line"/>
      <point x="80" y="700" type="line"/>
    </contour>
  </outline>
</glyph>
<glyph name="zacute_u.liga" format="2">
  <advance width="870"/>
  <outline>
    <contour>
      <point x="780" y="600" type="line"/>
      <point x="630" y="600" type="line"/>
      <point x="80" y="350" type="line"/>
      <point x="80" y="250" type="line"/>
      <point x="630" y="250" type="line"/>
      <point x="80" y="0" type="line"/>
      <point x="230" y="0" type="line"/>
      <point x="780" y="250" type="line"/>
      <point x="780" y="350" type="line"/>
      <point x="230" y="350" type="line"/>
    </contour>
    <contour>
      <point x="80" y="75" type="line"/>
      <point x="80" y="175" type="line"/>
      <point x="230" y="250" type="line"/>
      <point x="430" y="250" type="line"/>
    </contour>
    <contour>
      <point x="780" y="525" type="line"/>
      <point x="780" y="425" type="line"/>
      <point x="630" y="350" type="line"/>
      <point x="430" y="350" type="line"/>
    </contour>
    <contour>
      <point x="395" y="425" type="line"/>
      <point x="615" y="525" type="line"/>
      <point x="780" y="525" type="line"/>
      <point x="780" y="425" type="line"/>
    </contour>
    <contour>
      <point x="80" y="425" type="line"/>
      <point x="80" y="525" type="line"/>
      <point x="465" y="525" type="line"/>
      <point x="245" y="425" type="line"/>
    </contour>
    <contour>
      <point x="80" y="0" type="line"/>
      <point x="80" y="700" type="line"/>
    </contour>
    <contour>
      <point x="80" y="1000" type="line"/>
      <point x="80" y="850" type="line"/>
      <point x="430" y="700" type="line"/>
      <point x="780" y="850" type="line"/>
      <point x="780" y="1000" type="line"/>
      <point x="430" y="850" type="line"/>
    </contour>
    <contour>
      <point x="80" y="0" type="line"/>
      <point x="80" y="700" type="line"/>
    </contour>
  </outline>
</glyph>
